<svg xmlns="http://www.w3.org/2000/svg" viewBox="5.00 4.00 228.71 96.00" width="457" height="192" role="img" aria-label="Atelier du Quiz">
<g transform="translate(0.00,3.00) scale(1.0)">
  <rect x="17" y="18" width="72" height="62" rx="19" fill="#16182E"/>
  <path d="M26 66 L16 90 L46 70 Z" fill="#5A6EF6" stroke="#16182E" stroke-width="3.4" stroke-linejoin="round"/>
  <rect x="12" y="12" width="72" height="62" rx="19" fill="#5A6EF6" stroke="#16182E" stroke-width="3.4"/>
  <path transform="translate(37.68,58.89) scale(0.04800,-0.04800)" d="M100 226Q96 269 105.5 296.5Q115 324 132.0 342.5Q149 361 169.5 374.5Q190 388 209.0 401.0Q228 414 240.0 431.5Q252 449 252 475Q252 510 231.5 525.5Q211 541 176 541Q154 541 128.5 535.5Q103 530 77.5 520.5Q52 511 28 499L21 635Q50 649 79.5 657.5Q109 666 139.0 670.5Q169 675 196 675Q240 675 278.0 664.0Q316 653 345.5 630.5Q375 608 392.0 574.5Q409 541 409 495Q409 453 395.5 425.0Q382 397 361.0 377.0Q340 357 317.0 341.5Q294 326 273.0 310.5Q252 295 239.5 275.0Q227 255 228 226ZM171 -13Q119 -13 93.5 9.0Q68 31 68 77Q68 124 93.5 146.0Q119 168 171 168Q224 168 250.0 146.0Q276 124 276 77Q276 -13 171 -13Z" fill="#ffffff"/>
  <path d="M84 8 L87 17 L96 20 L87 23 L84 32 L81 23 L72 20 L81 17 Z" fill="#20BBE6" stroke="#16182E" stroke-width="2.2" stroke-linejoin="round"/>
</g>
<path transform="translate(108.482,34.294) scale(0.02200,-0.02200)" d="M69 0V660H230V0ZM98 0V135H499V0Z" fill="#6A6F8C"/>
<path transform="translate(119.380,34.294) scale(0.02200,-0.02200)" d="M39 461 20 720H167L148 461Z" fill="#6A6F8C"/>
<path transform="translate(123.194,34.294) scale(0.02200,-0.02200)" d="M14 0 238 660H474L698 0H522L364 534H348L190 0ZM147 124V232H589V124Z" fill="#6A6F8C"/>
<path transform="translate(138.558,34.294) scale(0.02200,-0.02200)" d="M268 -13Q175 -13 131.0 36.5Q87 86 87 195V402H12L15 527H69Q101 528 117.5 537.0Q134 546 138 571L151 645H242V528H369V397H242V202Q242 168 258.5 152.0Q275 136 309 136Q328 136 345.0 140.0Q362 144 373 151V2Q341 -8 314.5 -10.5Q288 -13 268 -13Z" fill="#6A6F8C"/>
<path transform="translate(147.190,34.294) scale(0.02200,-0.02200)" d="M313 -14Q247 -14 195.0 3.5Q143 21 106.5 55.0Q70 89 51.0 139.0Q32 189 32 254Q32 317 50.5 370.0Q69 423 103.5 461.5Q138 500 188.5 521.0Q239 542 302 542Q366 542 414.5 521.5Q463 501 494.5 461.0Q526 421 541.0 363.5Q556 306 551 232L138 229V313L459 316L402 277Q409 327 396.0 358.5Q383 390 358.0 404.5Q333 419 304 419Q269 419 242.5 400.0Q216 381 201.0 345.0Q186 309 186 257Q186 175 221.5 138.0Q257 101 312 101Q339 101 357.0 108.5Q375 116 386.5 127.5Q398 139 404.5 153.0Q411 167 415 180L555 150Q547 113 529.5 83.0Q512 53 482.5 31.0Q453 9 411.5 -2.5Q370 -14 313 -14Z" fill="#6A6F8C"/>
<path transform="translate(159.804,34.294) scale(0.02200,-0.02200)" d="M62 0V720H220V0Z" fill="#6A6F8C"/>
<path transform="translate(165.730,34.294) scale(0.02200,-0.02200)" d="M62 0V528H223V0ZM143 602Q97 602 72.5 621.5Q48 641 48 677Q48 715 72.5 734.5Q97 754 143 754Q190 754 214.5 734.5Q239 715 239 678Q239 641 214.5 621.5Q190 602 143 602Z" fill="#6A6F8C"/>
<path transform="translate(171.722,34.294) scale(0.02200,-0.02200)" d="M313 -14Q247 -14 195.0 3.5Q143 21 106.5 55.0Q70 89 51.0 139.0Q32 189 32 254Q32 317 50.5 370.0Q69 423 103.5 461.5Q138 500 188.5 521.0Q239 542 302 542Q366 542 414.5 521.5Q463 501 494.5 461.0Q526 421 541.0 363.5Q556 306 551 232L138 229V313L459 316L402 277Q409 327 396.0 358.5Q383 390 358.0 404.5Q333 419 304 419Q269 419 242.5 400.0Q216 381 201.0 345.0Q186 309 186 257Q186 175 221.5 138.0Q257 101 312 101Q339 101 357.0 108.5Q375 116 386.5 127.5Q398 139 404.5 153.0Q411 167 415 180L555 150Q547 113 529.5 83.0Q512 53 482.5 31.0Q453 9 411.5 -2.5Q370 -14 313 -14Z" fill="#6A6F8C"/>
<path transform="translate(184.336,34.294) scale(0.02200,-0.02200)" d="M62 0V245V528H194L197 349H217Q224 419 243.5 460.5Q263 502 299.5 521.0Q336 540 390 540Q398 540 408.0 539.5Q418 539 431 537L425 365Q409 373 390.5 375.5Q372 378 358 378Q319 378 290.5 363.0Q262 348 245.5 317.0Q229 286 224 239V0Z" fill="#6A6F8C"/>
<path transform="translate(200.148,34.294) scale(0.02200,-0.02200)" d="M255 -14Q189 -14 139.5 19.5Q90 53 62.0 115.5Q34 178 34 265Q34 345 58.0 407.0Q82 469 129.5 504.5Q177 540 247 540Q297 540 331.5 522.0Q366 504 389.0 468.0Q412 432 426 377H451Q444 411 438.0 441.5Q432 472 428.5 498.5Q425 525 425 545V720H587V258V0H455L453 156H431Q420 96 396.5 58.5Q373 21 337.5 3.5Q302 -14 255 -14ZM313 116Q344 116 365.5 129.5Q387 143 400.0 164.0Q413 185 419.0 209.0Q425 233 425 254V275Q425 294 420.0 313.0Q415 332 405.5 350.0Q396 368 382.0 382.0Q368 396 349.5 404.0Q331 412 309 412Q276 412 252.5 394.0Q229 376 216.5 343.0Q204 310 204 265Q204 220 217.0 186.5Q230 153 255.0 134.5Q280 116 313 116Z" fill="#6A6F8C"/>
<path transform="translate(214.126,34.294) scale(0.02200,-0.02200)" d="M243 -14Q149 -14 101.5 49.5Q54 113 54 243V528H216V264Q216 190 238.0 153.5Q260 117 305 117Q332 117 351.5 130.5Q371 144 384.5 168.5Q398 193 404.5 225.0Q411 257 411 295V528H572V214V0H444L441 163H421Q406 101 383.5 61.5Q361 22 327.0 4.0Q293 -14 243 -14Z" fill="#6A6F8C"/>
<path transform="translate(107.750,74.294) scale(0.05000,-0.05000)" d="M681 -157Q606 -172 553.5 -176.0Q501 -180 460.5 -176.0Q420 -172 382.0 -164.0Q344 -156 300.0 -148.0Q256 -140 196.0 -136.0Q136 -132 49 -136V-5Q76 -7 116.5 -6.5Q157 -6 203.5 -2.5Q250 1 296.0 7.0Q342 13 380.5 22.5Q419 32 441 45V58Q359 34 294.5 35.0Q230 36 182.5 58.0Q135 80 105.0 120.0Q75 160 60.0 214.0Q45 268 45 332Q45 405 65.0 467.5Q85 530 125.0 576.0Q165 622 225.0 648.0Q285 674 366 674Q466 674 536.5 633.0Q607 592 644.5 516.0Q682 440 682 334Q682 238 655.0 173.5Q628 109 580.5 69.0Q533 29 468.5 7.5Q404 -14 329 -23V-37Q384 -43 429.0 -47.0Q474 -51 515.0 -51.0Q556 -51 596.0 -46.0Q636 -41 681 -29ZM367 111Q419 111 453.0 134.5Q487 158 503.5 205.0Q520 252 520 323Q520 396 502.5 445.0Q485 494 449.5 519.5Q414 545 361 545Q311 545 276.5 520.5Q242 496 225.0 448.0Q208 400 208 328Q208 256 225.5 207.5Q243 159 279.0 135.0Q315 111 367 111Z" fill="#16182E"/>
<path transform="translate(143.050,74.294) scale(0.05000,-0.05000)" d="M243 -14Q149 -14 101.5 49.5Q54 113 54 243V528H216V264Q216 190 238.0 153.5Q260 117 305 117Q332 117 351.5 130.5Q371 144 384.5 168.5Q398 193 404.5 225.0Q411 257 411 295V528H572V214V0H444L441 163H421Q406 101 383.5 61.5Q361 22 327.0 4.0Q293 -14 243 -14Z" fill="#16182E"/>
<path transform="translate(173.750,74.294) scale(0.05000,-0.05000)" d="M62 0V528H223V0ZM143 602Q97 602 72.5 621.5Q48 641 48 677Q48 715 72.5 734.5Q97 754 143 754Q190 754 214.5 734.5Q239 715 239 678Q239 641 214.5 621.5Q190 602 143 602Z" fill="#16182E"/>
<path transform="translate(187.050,74.294) scale(0.05000,-0.05000)" d="M34 0V134L296 385V400H40V528H500V395L236 143V129H503V0Z" fill="#16182E"/>
</svg>
