<svg xmlns="http://www.w3.org/2000/svg" viewBox="0 0 100 100" width="512" height="512" role="img" aria-label="Atelier du Quiz">
  <rect x="17" y="18" width="72" height="62" rx="19" fill="#16182E"/>
  <path d="M26 66 L16 90 L46 70 Z" fill="#5A6EF6" stroke="#16182E" stroke-width="3.4" stroke-linejoin="round"/>
  <rect x="12" y="12" width="72" height="62" rx="19" fill="#5A6EF6" stroke="#16182E" stroke-width="3.4"/>
  <path transform="translate(37.68,58.89) scale(0.04800,-0.04800)" d="M100 226Q96 269 105.5 296.5Q115 324 132.0 342.5Q149 361 169.5 374.5Q190 388 209.0 401.0Q228 414 240.0 431.5Q252 449 252 475Q252 510 231.5 525.5Q211 541 176 541Q154 541 128.5 535.5Q103 530 77.5 520.5Q52 511 28 499L21 635Q50 649 79.5 657.5Q109 666 139.0 670.5Q169 675 196 675Q240 675 278.0 664.0Q316 653 345.5 630.5Q375 608 392.0 574.5Q409 541 409 495Q409 453 395.5 425.0Q382 397 361.0 377.0Q340 357 317.0 341.5Q294 326 273.0 310.5Q252 295 239.5 275.0Q227 255 228 226ZM171 -13Q119 -13 93.5 9.0Q68 31 68 77Q68 124 93.5 146.0Q119 168 171 168Q224 168 250.0 146.0Q276 124 276 77Q276 -13 171 -13Z" fill="#ffffff"/>
  <path d="M84 8 L87 17 L96 20 L87 23 L84 32 L81 23 L72 20 L81 17 Z" fill="#20BBE6" stroke="#16182E" stroke-width="2.2" stroke-linejoin="round"/>
</svg>
