<svg xmlns="http://www.w3.org/2000/svg" width="1860" height="1130" viewBox="0 0 1860 1130"><defs>
<linearGradient id="lid" x1="0" y1="0" x2="0" y2="1"><stop offset="0" stop-color="#262a55"/><stop offset="1" stop-color="#171a34"/></linearGradient>
<linearGradient id="metal" x1="0" y1="0" x2="0" y2="1"><stop offset="0" stop-color="#e8eaf2"/><stop offset="0.5" stop-color="#c4c9da"/><stop offset="1" stop-color="#aab0c6"/></linearGradient>
<linearGradient id="cov" x1="0" y1="0" x2="1" y2="1"><stop offset="0" stop-color="#6A78E6"/><stop offset="1" stop-color="#4A57B8"/></linearGradient>
<linearGradient id="covN" x1="0" y1="0" x2="1" y2="1"><stop offset="0" stop-color="#2A3060"/><stop offset="1" stop-color="#161B3C"/></linearGradient>
<radialGradient id="sh" cx="0.5" cy="0.5" r="0.5"><stop offset="0" stop-color="#2E386E" stop-opacity="0.30"/><stop offset="1" stop-color="#2E386E" stop-opacity="0"/></radialGradient>
</defs><ellipse cx="353.0" cy="666" rx="215" ry="24" fill="url(#sh)"/><rect x="150" y="332" width="406" height="318" rx="20" fill="#14173a" stroke="none" stroke-width="0"/><rect x="165" y="347" width="376" height="288" rx="12" fill="#ffffff" stroke="none" stroke-width="0"/><text x="185" y="379" font-family="Poppins" font-size="14.5" font-weight="600" fill="#2E386E" text-anchor="start" letter-spacing="0">Ton parcours quizing</text><text x="521" y="379" font-family="Poppins" font-size="12.5" font-weight="600" fill="#5D6CDB" text-anchor="end" letter-spacing="0">Jour 4 / 7</text><line x1="185" y1="393" x2="521" y2="393" stroke="#E4E7F2" stroke-width="1"/><rect x="185.0" y="405.0" width="74.0" height="102.0" rx="9" fill="#F4F5FA" stroke="#E4E7F2" stroke-width="1"/><text x="196.0" y="429.0" font-family="Poppins" font-size="14" font-weight="600" fill="#5D6CDB" text-anchor="start" letter-spacing="0">J0</text><circle cx="241.0" cy="421.0" r="8.5" fill="#5D6CDB"/><polyline points="237.4,422.0 240.1,424.52 244.6,419.48" fill="none" stroke="#ffffff" stroke-width="2" stroke-linecap="round" stroke-linejoin="round"/><text x="196.0" y="447.0" font-family="Poppins" font-size="10.5" font-weight="400" fill="#42506f" text-anchor="start" letter-spacing="0">Bienvenue</text><rect x="269.0" y="405.0" width="74.0" height="102.0" rx="9" fill="#F4F5FA" stroke="#E4E7F2" stroke-width="1"/><text x="280.0" y="429.0" font-family="Poppins" font-size="14" font-weight="600" fill="#5D6CDB" text-anchor="start" letter-spacing="0">J1</text><circle cx="325.0" cy="421.0" r="8.5" fill="#5D6CDB"/><polyline points="321.4,422.0 324.1,424.52 328.6,419.48" fill="none" stroke="#ffffff" stroke-width="2" stroke-linecap="round" stroke-linejoin="round"/><text x="280.0" y="447.0" font-family="Poppins" font-size="10.5" font-weight="400" fill="#42506f" text-anchor="start" letter-spacing="0">Pourquoi un</text><text x="280.0" y="461.0" font-family="Poppins" font-size="10.5" font-weight="400" fill="#42506f" text-anchor="start" letter-spacing="0">quiz</text><rect x="353.0" y="405.0" width="74.0" height="102.0" rx="9" fill="#F4F5FA" stroke="#E4E7F2" stroke-width="1"/><text x="364.0" y="429.0" font-family="Poppins" font-size="14" font-weight="600" fill="#5D6CDB" text-anchor="start" letter-spacing="0">J2</text><circle cx="409.0" cy="421.0" r="8.5" fill="#5D6CDB"/><polyline points="405.4,422.0 408.1,424.52 412.6,419.48" fill="none" stroke="#ffffff" stroke-width="2" stroke-linecap="round" stroke-linejoin="round"/><text x="364.0" y="447.0" font-family="Poppins" font-size="10.5" font-weight="400" fill="#42506f" text-anchor="start" letter-spacing="0">Brancher</text><text x="364.0" y="461.0" font-family="Poppins" font-size="10.5" font-weight="400" fill="#42506f" text-anchor="start" letter-spacing="0">Systeme.io</text><rect x="437.0" y="405.0" width="74.0" height="102.0" rx="9" fill="#F4F5FA" stroke="#E4E7F2" stroke-width="1"/><text x="448.0" y="429.0" font-family="Poppins" font-size="14" font-weight="600" fill="#5D6CDB" text-anchor="start" letter-spacing="0">J3</text><circle cx="493.0" cy="421.0" r="8.5" fill="#5D6CDB"/><polyline points="489.4,422.0 492.1,424.52 496.6,419.48" fill="none" stroke="#ffffff" stroke-width="2" stroke-linecap="round" stroke-linejoin="round"/><text x="448.0" y="447.0" font-family="Poppins" font-size="10.5" font-weight="400" fill="#42506f" text-anchor="start" letter-spacing="0">Le quiz viral</text><rect x="185.0" y="517.0" width="74.0" height="102.0" rx="9" fill="#EEF0FE" stroke="#5D6CDB" stroke-width="2"/><text x="196.0" y="541.0" font-family="Poppins" font-size="14" font-weight="600" fill="#5D6CDB" text-anchor="start" letter-spacing="0">J4</text><circle cx="241.0" cy="533.0" r="8.5" fill="none" stroke="#5D6CDB" stroke-width="2"/><text x="196.0" y="559.0" font-family="Poppins" font-size="10.5" font-weight="400" fill="#42506f" text-anchor="start" letter-spacing="0">Créer et</text><text x="196.0" y="573.0" font-family="Poppins" font-size="10.5" font-weight="400" fill="#42506f" text-anchor="start" letter-spacing="0">connecter</text><rect x="269.0" y="517.0" width="74.0" height="102.0" rx="9" fill="#F4F5FA" stroke="#E4E7F2" stroke-width="1"/><text x="280.0" y="541.0" font-family="Poppins" font-size="14" font-weight="600" fill="#8A93B2" text-anchor="start" letter-spacing="0">J5</text><circle cx="325.0" cy="533.0" r="8.5" fill="#ffffff" stroke="#E4E7F2" stroke-width="1"/><rect x="322.0" y="530.6" width="6" height="5.6" rx="1.5" fill="#8A93B2" stroke="none" stroke-width="0"/><text x="280.0" y="559.0" font-family="Poppins" font-size="10.5" font-weight="400" fill="#8A93B2" text-anchor="start" letter-spacing="0">Promouvoir</text><text x="280.0" y="573.0" font-family="Poppins" font-size="10.5" font-weight="400" fill="#8A93B2" text-anchor="start" letter-spacing="0">gratos</text><rect x="353.0" y="517.0" width="74.0" height="102.0" rx="9" fill="#F4F5FA" stroke="#E4E7F2" stroke-width="1"/><text x="364.0" y="541.0" font-family="Poppins" font-size="14" font-weight="600" fill="#8A93B2" text-anchor="start" letter-spacing="0">J6</text><circle cx="409.0" cy="533.0" r="8.5" fill="#ffffff" stroke="#E4E7F2" stroke-width="1"/><rect x="406.0" y="530.6" width="6" height="5.6" rx="1.5" fill="#8A93B2" stroke="none" stroke-width="0"/><text x="364.0" y="559.0" font-family="Poppins" font-size="10.5" font-weight="400" fill="#8A93B2" text-anchor="start" letter-spacing="0">Ta communauté</text><rect x="437.0" y="517.0" width="74.0" height="102.0" rx="9" fill="#F4F5FA" stroke="#E4E7F2" stroke-width="1"/><text x="448.0" y="541.0" font-family="Poppins" font-size="14" font-weight="600" fill="#8A93B2" text-anchor="start" letter-spacing="0">J7</text><circle cx="493.0" cy="533.0" r="8.5" fill="#ffffff" stroke="#E4E7F2" stroke-width="1"/><rect x="490.0" y="530.6" width="6" height="5.6" rx="1.5" fill="#8A93B2" stroke="none" stroke-width="0"/><text x="448.0" y="559.0" font-family="Poppins" font-size="10.5" font-weight="400" fill="#8A93B2" text-anchor="start" letter-spacing="0">Piloter la</text><text x="448.0" y="573.0" font-family="Poppins" font-size="10.5" font-weight="400" fill="#8A93B2" text-anchor="start" letter-spacing="0">suite</text><ellipse cx="985" cy="700" rx="420" ry="38" fill="url(#sh)"/><rect x="615" y="236" width="740" height="456" rx="20" fill="url(#lid)" stroke="none" stroke-width="0"/><rect x="635" y="256" width="700" height="416" rx="10" fill="#ffffff" stroke="none" stroke-width="0"/><rect x="655" y="274" width="34" height="34" rx="9" fill="#5D6CDB" stroke="none" stroke-width="0"/><rect x="663" y="282" width="18" height="3.4" rx="2" fill="#ffffff" stroke="none" stroke-width="0"/><rect x="663" y="289" width="18" height="3.4" rx="2" fill="#ffffff" stroke="none" stroke-width="0"/><rect x="663" y="296" width="18" height="3.4" rx="2" fill="#ffffff" stroke="none" stroke-width="0"/><text x="701" y="290" font-family="Poppins" font-size="17" font-weight="600" fill="#2E386E" text-anchor="start" letter-spacing="0">L'Atelier du Quiz</text><text x="701" y="308" font-family="Poppins" font-size="11.5" font-weight="400" fill="#8A93B2" text-anchor="start" letter-spacing="0">Ton parcours quizing</text><rect x="1165" y="278" width="150" height="28" rx="14" fill="#F4F5FA" stroke="#E4E7F2" stroke-width="1"/><circle cx="1183" cy="292" r="4" fill="#5D6CDB"/><text x="1195" y="296" font-family="Poppins" font-size="12.5" font-weight="500" fill="#2E386E" text-anchor="start" letter-spacing="0">22 leads captés</text><line x1="655" y1="322" x2="1315" y2="322" stroke="#E4E7F2" stroke-width="1"/><line x1="695.0" y1="364" x2="750.4285714285714" y2="364" stroke="#5D6CDB" stroke-width="3"/><line x1="782.4285714285714" y1="364" x2="837.8571428571429" y2="364" stroke="#5D6CDB" stroke-width="3"/><line x1="869.8571428571429" y1="364" x2="925.2857142857142" y2="364" stroke="#5D6CDB" stroke-width="3"/><line x1="957.2857142857142" y1="364" x2="1012.7142857142858" y2="364" stroke="#E4E7F2" stroke-width="3"/><line x1="1044.7142857142858" y1="364" x2="1100.142857142857" y2="364" stroke="#E4E7F2" stroke-width="3"/><line x1="1132.142857142857" y1="364" x2="1187.5714285714284" y2="364" stroke="#E4E7F2" stroke-width="3"/><line x1="1219.5714285714284" y1="364" x2="1275.0" y2="364" stroke="#E4E7F2" stroke-width="3"/><circle cx="679.0" cy="364" r="13" fill="#5D6CDB"/><polyline points="673.5,365 677.625,368.85 684.5,361.15" fill="none" stroke="#ffffff" stroke-width="2.6" stroke-linecap="round" stroke-linejoin="round"/><circle cx="766.4285714285714" cy="364" r="13" fill="#5D6CDB"/><polyline points="760.9285714285714,365 765.0535714285714,368.85 771.9285714285714,361.15" fill="none" stroke="#ffffff" stroke-width="2.6" stroke-linecap="round" stroke-linejoin="round"/><circle cx="853.8571428571429" cy="364" r="13" fill="#5D6CDB"/><polyline points="848.3571428571429,365 852.4821428571429,368.85 859.3571428571429,361.15" fill="none" stroke="#ffffff" stroke-width="2.6" stroke-linecap="round" stroke-linejoin="round"/><circle cx="941.2857142857142" cy="364" r="13" fill="#5D6CDB"/><polyline points="935.7857142857142,365 939.9107142857142,368.85 946.7857142857142,361.15" fill="none" stroke="#ffffff" stroke-width="2.6" stroke-linecap="round" stroke-linejoin="round"/><circle cx="1028.7142857142858" cy="364" r="17" fill="#ffffff" stroke="#5D6CDB" stroke-width="3"/><text x="1028.7142857142858" y="370" font-family="Poppins" font-size="16" font-weight="600" fill="#5D6CDB" text-anchor="middle" letter-spacing="0">4</text><circle cx="1116.142857142857" cy="364" r="13" fill="#F4F5FA" stroke="#E4E7F2" stroke-width="1"/><circle cx="1203.5714285714284" cy="364" r="13" fill="#F4F5FA" stroke="#E4E7F2" stroke-width="1"/><circle cx="1291.0" cy="364" r="13" fill="#F4F5FA" stroke="#E4E7F2" stroke-width="1"/><text x="679" y="420" font-family="Poppins" font-size="19" font-weight="600" fill="#2E386E" text-anchor="start" letter-spacing="0">Jour 4  ·  Crée et connecte ton quiz</text><rect x="679" y="444" width="294.0" height="118" rx="12" fill="#F4F5FA" stroke="#E4E7F2" stroke-width="1"/><circle cx="826.0" cy="497.0" r="24" fill="#5D6CDB"/><path d="M 819.0 486.0 L 837.0 497.0 L 819.0 508.0 Z" fill="#ffffff"/><text x="826.0" y="548" font-family="Poppins" font-size="12.5" font-weight="500" fill="#8A93B2" text-anchor="middle" letter-spacing="0">Vidéo · 6 min</text><rect x="997.0" y="444" width="294.0" height="118" rx="12" fill="#ffffff" stroke="#E4E7F2" stroke-width="1"/><text x="1013.0" y="470" font-family="Poppins" font-size="13" font-weight="600" fill="#2E386E" text-anchor="start" letter-spacing="0">Quel est l'objectif de ton quiz ?</text><rect x="1011.0" y="484" width="266.0" height="24" rx="7" fill="#EEF0FE" stroke="#5D6CDB" stroke-width="2"/><circle cx="1027.0" cy="496" r="7" fill="#5D6CDB"/><polyline points="1023.4,497 1026.1,499.52 1030.6,494.48" fill="none" stroke="#ffffff" stroke-width="2" stroke-linecap="round" stroke-linejoin="round"/><text x="1043.0" y="500" font-family="Poppins" font-size="12" font-weight="500" fill="#2E386E" text-anchor="start" letter-spacing="0">Capter des leads qualifiés</text><rect x="1011.0" y="514" width="266.0" height="24" rx="7" fill="#ffffff" stroke="#E4E7F2" stroke-width="1"/><circle cx="1027.0" cy="526" r="7" fill="none" stroke="#E4E7F2" stroke-width="1.5"/><text x="1043.0" y="530" font-family="Poppins" font-size="12" font-weight="400" fill="#8A93B2" text-anchor="start" letter-spacing="0">Vendre directement</text><rect x="1011.0" y="544" width="266.0" height="24" rx="7" fill="#ffffff" stroke="#E4E7F2" stroke-width="1"/><circle cx="1027.0" cy="556" r="7" fill="none" stroke="#E4E7F2" stroke-width="1.5"/><text x="1043.0" y="560" font-family="Poppins" font-size="12" font-weight="400" fill="#8A93B2" text-anchor="start" letter-spacing="0">Sonder mon audience</text><rect x="679" y="608" width="612" height="48" rx="12" fill="#F4F5FA" stroke="#E4E7F2" stroke-width="1"/><circle cx="705" cy="632" r="15" fill="#EEEDFE"/><path d="M 705 625 L 706.96 630.04 L 712 632 L 706.96 633.96 L 705 639 L 703.04 633.96 L 698 632 L 703.04 630.04 Z" fill="#3C3489"/><text x="731" y="629" font-family="Poppins" font-size="12.5" font-weight="600" fill="#2E386E" text-anchor="start" letter-spacing="0">Coach IA</text><circle cx="799" cy="625" r="4" fill="#1D9E75"/><text x="809" y="629" font-family="Poppins" font-size="11" font-weight="400" fill="#8A93B2" text-anchor="start" letter-spacing="0">connecté à ton quiz</text><text x="731" y="646" font-family="Poppins" font-size="11.5" font-weight="400" fill="#5B6B93" text-anchor="start" letter-spacing="0">Ta question 2 fait fuir 18% des visiteurs. On l'inverse ?</text><rect x="565" y="692" width="840" height="22" rx="11" fill="url(#metal)" stroke="none" stroke-width="0"/><rect x="915" y="692" width="200" height="10" rx="5" fill="#b7bccd" stroke="none" stroke-width="0"/><ellipse cx="1527" cy="742" rx="120" ry="22" fill="url(#sh)"/><rect x="1420" y="320" width="214" height="404" rx="38" fill="#14173a" stroke="none" stroke-width="0"/><rect x="1433" y="333" width="188" height="378" rx="27" fill="#ffffff" stroke="none" stroke-width="0"/><rect x="1503.0" y="340" width="48" height="13" rx="6" fill="#14173a" stroke="none" stroke-width="0"/><text x="1448" y="372" font-family="Poppins" font-size="14.5" font-weight="600" fill="#2E386E" text-anchor="start" letter-spacing="0">Coach IA</text><circle cx="1526" cy="367" r="4.5" fill="#1D9E75"/><text x="1536" y="372" font-family="Poppins" font-size="11" font-weight="400" fill="#8A93B2" text-anchor="start" letter-spacing="0">en ligne</text><rect x="1442" y="388" width="168" height="112" rx="14" fill="#F4F5FA" stroke="none" stroke-width="0"/><text x="1456" y="412" font-family="Poppins" font-size="12" font-weight="400" fill="#42506f" text-anchor="start" letter-spacing="0">J'ai regardé tes</text><text x="1456" y="434" font-family="Poppins" font-size="12" font-weight="400" fill="#42506f" text-anchor="start" letter-spacing="0">données. Ta question 2</text><text x="1456" y="456" font-family="Poppins" font-size="12" font-weight="400" fill="#42506f" text-anchor="start" letter-spacing="0">fait fuir 18% des gens.</text><text x="1456" y="478" font-family="Poppins" font-size="12" font-weight="400" fill="#42506f" text-anchor="start" letter-spacing="0">On inverse la 2 et la 3 ?</text><rect x="1442" y="518" width="116" height="32" rx="16" fill="#5D6CDB" stroke="none" stroke-width="0"/><text x="1500" y="539" font-family="Poppins" font-size="12" font-weight="500" fill="#ffffff" text-anchor="middle" letter-spacing="0">Oui, aide-moi</text><rect x="1442" y="558" width="92" height="32" rx="16" fill="#ffffff" stroke="#E4E7F2" stroke-width="1"/><text x="1488" y="579" font-family="Poppins" font-size="12" font-weight="400" fill="#5B6B93" text-anchor="middle" letter-spacing="0">Pourquoi ?</text><rect x="1442" y="608" width="55" height="50" rx="10" fill="#F4F5FA" stroke="none" stroke-width="0"/><text x="1469" y="629" font-family="Poppins" font-size="15.5" font-weight="600" fill="#2E386E" text-anchor="middle" letter-spacing="0">22</text><text x="1469" y="648" font-family="Poppins" font-size="9" font-weight="400" fill="#8A93B2" text-anchor="middle" letter-spacing="0">Leads</text><rect x="1505" y="608" width="55" height="50" rx="10" fill="#F4F5FA" stroke="none" stroke-width="0"/><text x="1532" y="629" font-family="Poppins" font-size="15.5" font-weight="600" fill="#2E386E" text-anchor="middle" letter-spacing="0">68%</text><text x="1532" y="648" font-family="Poppins" font-size="9" font-weight="400" fill="#8A93B2" text-anchor="middle" letter-spacing="0">Complét.</text><rect x="1568" y="608" width="55" height="50" rx="10" fill="#F4F5FA" stroke="none" stroke-width="0"/><text x="1595" y="629" font-family="Poppins" font-size="15.5" font-weight="600" fill="#2E386E" text-anchor="middle" letter-spacing="0">3</text><text x="1595" y="648" font-family="Poppins" font-size="9" font-weight="400" fill="#8A93B2" text-anchor="middle" letter-spacing="0">Ventes</text><ellipse cx="560" cy="1048" rx="105.0" ry="13" fill="url(#sh)"/><rect x="446.0" y="754" width="13" height="290" rx="4" fill="#3C3489" stroke="none" stroke-width="0"/><rect x="455.0" y="754" width="210" height="290" rx="12" fill="url(#cov)" stroke="none" stroke-width="0"/><rect x="471.0" y="772" width="92" height="24" rx="12" fill="#ffffff22" stroke="none" stroke-width="0"/><text x="483.0" y="789" font-family="Poppins" font-size="11.5" font-weight="600" fill="#EAECFF" text-anchor="start" letter-spacing="1.5">MÉTHODE</text><text x="473.0" y="848" font-family="Poppins" font-size="21" font-weight="600" fill="#ffffff" text-anchor="start" letter-spacing="0">La Méthode</text><text x="473.0" y="874" font-family="Poppins" font-size="21" font-weight="600" fill="#ffffff" text-anchor="start" letter-spacing="0">CAPTO®</text><text x="473.0" y="906" font-family="Poppins" font-size="12" font-weight="400" fill="#CBD1FF" text-anchor="start" letter-spacing="0">Capter, Attirer,</text><text x="473.0" y="922" font-family="Poppins" font-size="12" font-weight="400" fill="#CBD1FF" text-anchor="start" letter-spacing="0">Profiler,</text><text x="473.0" y="938" font-family="Poppins" font-size="12" font-weight="400" fill="#CBD1FF" text-anchor="start" letter-spacing="0">Transformer,</text><text x="473.0" y="954" font-family="Poppins" font-size="12" font-weight="400" fill="#CBD1FF" text-anchor="start" letter-spacing="0">Optimiser</text><text x="473.0" y="1026" font-family="Poppins" font-size="10.5" font-weight="400" fill="#C9CEFF" text-anchor="start" letter-spacing="0">L'Atelier du Quiz</text><ellipse cx="720" cy="1048" rx="105.0" ry="13" fill="url(#sh)"/><rect x="606.0" y="754" width="13" height="290" rx="4" fill="#3C3489" stroke="none" stroke-width="0"/><rect x="615.0" y="754" width="210" height="290" rx="12" fill="url(#cov)" stroke="none" stroke-width="0"/><rect x="631.0" y="772" width="92" height="24" rx="12" fill="#ffffff22" stroke="none" stroke-width="0"/><text x="643.0" y="789" font-family="Poppins" font-size="11.5" font-weight="600" fill="#EAECFF" text-anchor="start" letter-spacing="1.5">MODULE</text><text x="633.0" y="848" font-family="Poppins" font-size="21" font-weight="600" fill="#ffffff" text-anchor="start" letter-spacing="0">7 séquences</text><text x="633.0" y="874" font-family="Poppins" font-size="21" font-weight="600" fill="#ffffff" text-anchor="start" letter-spacing="0">email</text><text x="633.0" y="906" font-family="Poppins" font-size="12" font-weight="400" fill="#CBD1FF" text-anchor="start" letter-spacing="0">prêtes à coller</text><text x="633.0" y="1026" font-family="Poppins" font-size="10.5" font-weight="400" fill="#C9CEFF" text-anchor="start" letter-spacing="0">L'Atelier du Quiz</text><ellipse cx="880" cy="1048" rx="105.0" ry="13" fill="url(#sh)"/><rect x="766.0" y="754" width="13" height="290" rx="4" fill="#3C3489" stroke="none" stroke-width="0"/><rect x="775.0" y="754" width="210" height="290" rx="12" fill="url(#cov)" stroke="none" stroke-width="0"/><rect x="791.0" y="772" width="92" height="24" rx="12" fill="#ffffff22" stroke="none" stroke-width="0"/><text x="803.0" y="789" font-family="Poppins" font-size="11.5" font-weight="600" fill="#EAECFF" text-anchor="start" letter-spacing="1.5">MODULE</text><text x="793.0" y="848" font-family="Poppins" font-size="21" font-weight="600" fill="#ffffff" text-anchor="start" letter-spacing="0">36 growth</text><text x="793.0" y="874" font-family="Poppins" font-size="21" font-weight="600" fill="#ffffff" text-anchor="start" letter-spacing="0">hacks</text><text x="793.0" y="906" font-family="Poppins" font-size="12" font-weight="400" fill="#CBD1FF" text-anchor="start" letter-spacing="0">trafic, viralité,</text><text x="793.0" y="922" font-family="Poppins" font-size="12" font-weight="400" fill="#CBD1FF" text-anchor="start" letter-spacing="0">vente</text><text x="793.0" y="1026" font-family="Poppins" font-size="10.5" font-weight="400" fill="#C9CEFF" text-anchor="start" letter-spacing="0">L'Atelier du Quiz</text><ellipse cx="1040" cy="1048" rx="105.0" ry="13" fill="url(#sh)"/><rect x="926.0" y="754" width="13" height="290" rx="4" fill="#3C3489" stroke="none" stroke-width="0"/><rect x="935.0" y="754" width="210" height="290" rx="12" fill="url(#cov)" stroke="none" stroke-width="0"/><rect x="951.0" y="772" width="92" height="24" rx="12" fill="#ffffff22" stroke="none" stroke-width="0"/><text x="963.0" y="789" font-family="Poppins" font-size="11.5" font-weight="600" fill="#EAECFF" text-anchor="start" letter-spacing="1.5">MODULE</text><text x="953.0" y="848" font-family="Poppins" font-size="21" font-weight="600" fill="#ffffff" text-anchor="start" letter-spacing="0">15 templates</text><text x="953.0" y="874" font-family="Poppins" font-size="21" font-weight="600" fill="#ffffff" text-anchor="start" letter-spacing="0">de quiz</text><text x="953.0" y="906" font-family="Poppins" font-size="12" font-weight="400" fill="#CBD1FF" text-anchor="start" letter-spacing="0">pour toutes les</text><text x="953.0" y="922" font-family="Poppins" font-size="12" font-weight="400" fill="#CBD1FF" text-anchor="start" letter-spacing="0">niches</text><text x="953.0" y="1026" font-family="Poppins" font-size="10.5" font-weight="400" fill="#C9CEFF" text-anchor="start" letter-spacing="0">L'Atelier du Quiz</text><ellipse cx="1200" cy="1048" rx="105.0" ry="13" fill="url(#sh)"/><rect x="1086.0" y="754" width="13" height="290" rx="4" fill="#0E1230" stroke="none" stroke-width="0"/><rect x="1095.0" y="754" width="210" height="290" rx="12" fill="url(#covN)" stroke="none" stroke-width="0"/><rect x="1111.0" y="772" width="92" height="24" rx="12" fill="#ffffff22" stroke="none" stroke-width="0"/><text x="1123.0" y="789" font-family="Poppins" font-size="11.5" font-weight="600" fill="#AEB6E8" text-anchor="start" letter-spacing="1.5">BONUS</text><text x="1113.0" y="848" font-family="Poppins" font-size="21" font-weight="600" fill="#ffffff" text-anchor="start" letter-spacing="0">Trafic</text><text x="1113.0" y="874" font-family="Poppins" font-size="21" font-weight="600" fill="#ffffff" text-anchor="start" letter-spacing="0">payant</text><text x="1113.0" y="906" font-family="Poppins" font-size="12" font-weight="400" fill="#8890C8" text-anchor="start" letter-spacing="0">à petit budget</text><text x="1113.0" y="1026" font-family="Poppins" font-size="10.5" font-weight="400" fill="#8890C8" text-anchor="start" letter-spacing="0">L'Atelier du Quiz</text><ellipse cx="1360" cy="1048" rx="105.0" ry="13" fill="url(#sh)"/><rect x="1246.0" y="754" width="13" height="290" rx="4" fill="#0E1230" stroke="none" stroke-width="0"/><rect x="1255.0" y="754" width="210" height="290" rx="12" fill="url(#covN)" stroke="none" stroke-width="0"/><rect x="1271.0" y="772" width="92" height="24" rx="12" fill="#ffffff22" stroke="none" stroke-width="0"/><text x="1283.0" y="789" font-family="Poppins" font-size="11.5" font-weight="600" fill="#AEB6E8" text-anchor="start" letter-spacing="1.5">BONUS</text><text x="1273.0" y="848" font-family="Poppins" font-size="21" font-weight="600" fill="#ffffff" text-anchor="start" letter-spacing="0">Vendre avec</text><text x="1273.0" y="874" font-family="Poppins" font-size="21" font-weight="600" fill="#ffffff" text-anchor="start" letter-spacing="0">un quiz</text><text x="1273.0" y="906" font-family="Poppins" font-size="12" font-weight="400" fill="#8890C8" text-anchor="start" letter-spacing="0">page résultat +</text><text x="1273.0" y="922" font-family="Poppins" font-size="12" font-weight="400" fill="#8890C8" text-anchor="start" letter-spacing="0">coupon</text><text x="1273.0" y="1026" font-family="Poppins" font-size="10.5" font-weight="400" fill="#8890C8" text-anchor="start" letter-spacing="0">L'Atelier du Quiz</text></svg>